<?xml version="1.0" standalone="no"?>
<!DOCTYPE svg PUBLIC "-//W3C//DTD SVG 20010904//EN"
 "http://www.w3.org/TR/2001/REC-SVG-20010904/DTD/svg10.dtd">
<svg version="1.0" xmlns="http://www.w3.org/2000/svg"
 width="512.000000pt" height="512.000000pt" viewBox="0 0 512.000000 512.000000"
 preserveAspectRatio="xMidYMid meet">
<metadata>
Created by potrace 1.14, written by Peter Selinger 2001-2017
</metadata>
<g transform="translate(0.000000,512.000000) scale(0.100000,-0.100000)"
fill="#000000" stroke="none">
<path d="M2529 5101 c-31 -9 -78 -27 -105 -41 -67 -34 -173 -143 -206 -210
-55 -113 -56 -125 -57 -659 -1 -272 -3 -496 -5 -498 -2 -2 -23 4 -47 14 -41
17 -98 18 -845 18 l-800 0 -76 -38 c-110 -54 -182 -141 -213 -257 -9 -34 -12
-248 -11 -820 l1 -775 32 -68 c57 -119 173 -211 293 -231 14 -3 210 -5 435 -5
l411 -1 -1 -179 c0 -120 3 -177 10 -173 15 9 184 137 330 251 76 59 139 101
153 101 l22 0 0 -513 c0 -579 0 -580 71 -661 43 -49 91 -79 147 -91 19 -4 164
-7 322 -8 l289 0 3 -129 3 -128 164 126 163 127 95 3 c78 3 104 8 149 30 62
30 108 78 138 143 20 45 21 58 21 606 0 514 -1 564 -18 606 -21 55 -82 121
-141 152 -40 22 -49 22 -441 24 -220 1 -410 2 -422 3 l-23 0 0 300 0 300 58
-29 c115 -59 130 -60 671 -61 272 0 497 -2 499 -5 3 -3 4 -104 3 -225 -1 -121
1 -220 4 -220 4 0 139 101 301 225 l294 225 158 0 c173 0 238 11 332 58 114
56 219 190 254 325 21 78 21 1947 0 2025 -49 185 -209 340 -384 372 -35 7
-398 10 -1015 9 -850 -2 -966 -4 -1016 -18z"/>
</g>
</svg>
